<svg xmlns="http://www.w3.org/2000/svg" version="1.1" xmlns:xlink="http://www.w3.org/1999/xlink" xmlns:svgjs="http://svgjs.dev/svgjs" width="2000" height="222" viewBox="0 0 2000 222"><g transform="matrix(1,0,0,1,-1.2121212121212466,0.15262041148851324)"><svg viewBox="0 0 396 44" data-background-color="#ffffff" preserveAspectRatio="xMidYMid meet" height="222" width="2000" xmlns="http://www.w3.org/2000/svg" xmlns:xlink="http://www.w3.org/1999/xlink"><g id="tight-bounds" transform="matrix(1,0,0,1,0.2400000000000091,-0.03024909056529168)"><svg viewBox="0 0 395.52 44.06049818113056" height="44.06049818113056" width="395.52"><g><svg viewBox="0 0 442.46615025021214 49.29024830175798" height="44.06049818113056" width="395.52"><g transform="matrix(1,0,0,1,0,6.812183376002732)"><svg viewBox="0 0 395.52 35.66588154975251" height="35.66588154975251" width="395.52"><g id="textblocktransform"><svg viewBox="0 0 395.52 35.66588154975251" height="35.66588154975251" width="395.52" id="textblock"><g><svg viewBox="0 0 395.52 35.66588154975251" height="35.66588154975251" width="395.52"><g transform="matrix(1,0,0,1,0,0)"><svg width="395.52" viewBox="2.64 -37.94 429.08000000000004 38.699999999999996" height="35.66588154975251" data-palette-color="#000000"><path d="M2.93-0.9L2.93-5.2Q4.17-5.03 5.62-4.91L5.62-4.91Q6.86-4.79 8.46-4.71 10.06-4.64 11.84-4.64L11.84-4.64Q14.21-4.64 15.6-4.94 16.99-5.25 17.72-5.85 18.46-6.45 18.66-7.32 18.87-8.2 18.87-9.35L18.87-9.35Q18.87-10.25 18.79-11 18.7-11.74 18.38-12.33 18.07-12.92 17.48-13.34 16.89-13.77 15.87-14.04L15.87-14.04 8.76-15.89Q7.08-16.33 5.91-17.08 4.74-17.82 4.02-18.97 3.3-20.12 2.97-21.74 2.64-23.36 2.64-25.56L2.64-25.56Q2.64-28.15 3.42-30.04 4.2-31.93 5.63-33.15 7.06-34.38 9.08-34.96 11.11-35.55 13.6-35.55L13.6-35.55Q15.67-35.55 17.4-35.31 19.12-35.08 20.36-34.81L20.36-34.81Q21.83-34.5 23.02-34.11L23.02-34.11 23.02-29.59Q21.92-29.74 20.7-29.86L20.7-29.86Q19.65-29.98 18.35-30.07 17.04-30.15 15.65-30.15L15.65-30.15Q13.48-30.15 12.08-30 10.69-29.86 9.89-29.39 9.08-28.93 8.76-28.08 8.45-27.22 8.45-25.81L8.45-25.81Q8.45-25.02 8.53-24.41 8.62-23.8 8.92-23.34 9.23-22.88 9.8-22.53 10.38-22.19 11.35-21.9L11.35-21.9 17.97-20Q19.24-19.63 20.23-19.23 21.22-18.82 21.95-18.27 22.68-17.72 23.21-16.99 23.73-16.26 24.05-15.25 24.37-14.23 24.51-12.87 24.66-11.5 24.66-9.72L24.66-9.72Q24.66-6.93 24.18-4.94 23.71-2.95 22.39-1.7 21.07-0.44 18.76 0.16 16.46 0.76 12.79 0.76L12.79 0.76Q9.96 0.76 8.09 0.5 6.23 0.24 5.05-0.07L5.05-0.07Q3.71-0.44 2.93-0.9L2.93-0.9ZM29.39-13.16L29.39-13.16Q29.39-17.19 30.44-19.78 31.49-22.36 33.23-23.85 34.96-25.34 37.18-25.92 39.4-26.49 41.75-26.49L41.75-26.49Q44.7-26.49 46.64-25.68 48.58-24.88 49.73-23.43 50.88-21.97 51.34-19.95 51.8-17.92 51.8-15.48L51.8-15.48Q51.8-14.33 51.72-13.11 51.63-11.89 51.49-10.6L51.49-10.6 35.35-10.6Q35.37-8.86 35.73-7.68 36.08-6.49 36.9-5.75 37.72-5 39.07-4.68 40.43-4.35 42.45-4.35L42.45-4.35Q44.16-4.35 45.65-4.43 47.14-4.52 48.26-4.64L48.26-4.64Q49.58-4.76 50.66-4.96L50.66-4.96 50.66-0.9Q49.41-0.44 47.95-0.07L47.95-0.07Q46.7 0.24 45.04 0.5 43.38 0.76 41.5 0.76L41.5 0.76Q38.62 0.76 36.37 0.04 34.13-0.68 32.58-2.33 31.03-3.98 30.21-6.64 29.39-9.3 29.39-13.16ZM35.3-14.94L46.46-14.94 46.46-15.87Q46.46-17.33 46.27-18.42 46.09-19.51 45.53-20.21 44.97-20.92 43.94-21.26 42.92-21.61 41.21-21.61L41.21-21.61Q39.38-21.61 38.22-21.18 37.06-20.75 36.41-19.91 35.76-19.07 35.53-17.82 35.3-16.58 35.3-14.94L35.3-14.94ZM57.64 0L57.64-25.76 61.88-25.76 62.59-23.85Q63.96-24.58 65.5-25.17L65.5-25.17Q66.82-25.66 68.49-26.07 70.16-26.49 71.94-26.49L71.94-26.49Q74.09-26.49 75.5-25.81 76.9-25.12 77.68-23.75L77.68-23.75Q78.29-24.1 79.27-24.56 80.24-25.02 81.46-25.45 82.69-25.88 84.15-26.18 85.62-26.49 87.23-26.49L87.23-26.49Q90.79-26.49 92.44-24.48 94.09-22.46 94.09-18.26L94.09-18.26 94.09 0 88.28 0 88.28-17.14Q88.28-18.31 88.13-19.1 87.98-19.9 87.57-20.4 87.15-20.9 86.43-21.12 85.71-21.34 84.54-21.34L84.54-21.34Q83.61-21.34 82.75-21.23 81.88-21.12 81.11-20.95 80.34-20.78 79.72-20.58 79.1-20.39 78.66-20.24L78.66-20.24Q78.73-19.6 78.75-18.9 78.78-18.19 78.78-17.75L78.78-17.75 78.78 0 72.99 0 72.99-17.14Q72.99-18.31 72.83-19.1 72.68-19.9 72.26-20.4 71.85-20.9 71.15-21.12 70.45-21.34 69.38-21.34L69.38-21.34Q68.16-21.34 67.1-21.15 66.04-20.97 65.2-20.78L65.2-20.78Q64.23-20.53 63.42-20.24L63.42-20.24 63.42 0 57.64 0ZM101.19-7.3L101.19-7.3Q101.19-9.5 101.84-11.01 102.48-12.52 103.59-13.45 104.7-14.38 106.21-14.79 107.71-15.21 109.44-15.21L109.44-15.21Q111.2-15.21 112.63-15.01 114.06-14.82 115.1-14.58L115.1-14.58Q116.3-14.31 117.28-13.96L117.28-13.96 117.28-16.36Q117.28-17.26 117.22-17.88 117.16-18.51 117.01-18.97 116.86-19.43 116.61-19.75 116.35-20.07 115.98-20.36L115.98-20.36Q115.2-20.92 113.84-21.17 112.47-21.41 110.27-21.41L110.27-21.41Q108.88-21.41 107.57-21.33 106.27-21.24 105.24-21.12L105.24-21.12Q104.05-21 102.97-20.85L102.97-20.85 102.97-24.9Q103.95-25.29 105.39-25.61L105.39-25.61Q106.61-25.88 108.44-26.11 110.27-26.34 112.79-26.34L112.79-26.34Q114.47-26.34 115.78-26.21 117.08-26.07 118.08-25.76 119.08-25.44 119.85-24.93 120.62-24.41 121.23-23.66L121.23-23.66Q121.75-23.02 122.09-22.31 122.43-21.61 122.65-20.65 122.87-19.7 122.95-18.47 123.04-17.24 123.04-15.6L123.04-15.6 123.04 0 118.13 0 117.69-1.9Q116.62-1.15 115.32-0.56L115.32-0.56Q114.2-0.07 112.7 0.34 111.2 0.76 109.39 0.76L109.39 0.76Q107.19 0.76 105.63 0.32 104.07-0.12 103.08-1.07 102.09-2.03 101.64-3.56 101.19-5.1 101.19-7.3ZM107.12-7.3L107.12-7.3Q107.12-6.23 107.39-5.59 107.66-4.96 108.17-4.63 108.68-4.3 109.43-4.2 110.17-4.1 111.13-4.1L111.13-4.1Q112.37-4.1 113.48-4.33 114.59-4.57 115.45-4.83L115.45-4.83Q116.42-5.15 117.28-5.57L117.28-5.57 117.28-10.03Q116.5-10.18 115.59-10.3L115.59-10.3Q114.81-10.42 113.82-10.51 112.83-10.6 111.74-10.6L111.74-10.6Q110.51-10.6 109.65-10.49 108.78-10.38 108.22-10.02 107.66-9.67 107.39-9.02 107.12-8.37 107.12-7.3ZM131.26 0L131.26-25.76 135.51-25.76 136.22-23.85Q137.56-24.58 139.15-25.17L139.15-25.17Q140.52-25.66 142.3-26.07 144.08-26.49 146.11-26.49L146.11-26.49Q149.92-26.49 151.74-24.5 153.55-22.51 153.55-18.26L153.55-18.26 153.55 0 147.77 0 147.77-17.55Q147.77-18.55 147.63-19.27 147.5-20 147.06-20.45 146.62-20.9 145.79-21.12 144.96-21.34 143.57-21.34L143.57-21.34Q142.1-21.34 140.91-21.15 139.71-20.97 138.86-20.78L138.86-20.78Q137.86-20.53 137.05-20.24L137.05-20.24 137.05 0 131.26 0ZM163.42-5.25L163.42-20.95 159.61-20.95 159.61-25.76 163.42-25.76 163.42-31.2 169.2-32.5 169.2-25.76 175.7-25.76 175.7-20.95 169.2-20.95 169.2-7.1Q169.2-6.2 169.34-5.62 169.47-5.03 169.82-4.68 170.18-4.32 170.82-4.19 171.47-4.05 172.5-4.05L172.5-4.05Q173.45-4.05 174.22-4.09 174.99-4.13 175.52-4.17L175.52-4.17Q176.16-4.22 176.65-4.3L176.65-4.3 176.65-0.44Q175.79-0.1 174.82 0.17L174.82 0.17Q173.96 0.39 172.81 0.57 171.67 0.76 170.3 0.76L170.3 0.76Q168.4 0.76 167.09 0.39 165.78 0.02 164.97-0.72 164.15-1.46 163.78-2.6 163.42-3.74 163.42-5.25L163.42-5.25ZM186.04-30.13L186.04-30.13Q185.04-30.13 184.4-30.27 183.75-30.42 183.35-30.79 182.94-31.15 182.79-31.79 182.63-32.42 182.63-33.42L182.63-33.42Q182.63-34.42 182.79-35.07 182.94-35.72 183.35-36.11 183.75-36.5 184.4-36.65 185.04-36.79 186.04-36.79L186.04-36.79Q187.05-36.79 187.69-36.65 188.34-36.5 188.73-36.11 189.12-35.72 189.27-35.07 189.41-34.42 189.41-33.42L189.41-33.42Q189.41-32.42 189.27-31.79 189.12-31.15 188.73-30.79 188.34-30.42 187.69-30.27 187.05-30.13 186.04-30.13ZM183.14 0L183.14-25.76 188.95-25.76 188.95 0 183.14 0ZM195.69-12.89L195.69-12.89Q195.69-16.55 196.58-19.12 197.47-21.68 198.99-23.28 200.52-24.88 202.57-25.61 204.62-26.34 206.94-26.34L206.94-26.34Q208.72-26.34 210.14-26.11 211.55-25.88 212.56-25.61L212.56-25.61Q213.73-25.29 214.58-24.9L214.58-24.9 214.58-20.9Q213.75-20.97 212.78-21.07L212.78-21.07Q211.95-21.12 210.9-21.18 209.85-21.24 208.7-21.24L208.7-21.24Q206.87-21.24 205.55-20.92 204.23-20.61 203.4-19.71 202.57-18.82 202.18-17.2 201.79-15.58 201.79-12.94L201.79-12.94Q201.79-10.25 202.24-8.59 202.69-6.93 203.62-6.02 204.55-5.1 205.94-4.8 207.33-4.49 209.24-4.49L209.24-4.49Q210.43-4.49 211.44-4.55 212.46-4.61 213.21-4.71L213.21-4.71Q214.09-4.81 214.8-4.96L214.8-4.96 214.8-0.9Q214.02-0.46 212.9-0.12L212.9-0.12Q211.95 0.17 210.5 0.42 209.06 0.66 207.14 0.66L207.14 0.66Q204.77 0.66 202.68 0.01 200.59-0.63 199.04-2.2 197.49-3.76 196.59-6.36 195.69-8.96 195.69-12.89ZM232.37-0.9L232.37-5.2Q233.62-5.03 235.06-4.91L235.06-4.91Q236.31-4.79 237.9-4.71 239.5-4.64 241.29-4.64L241.29-4.64Q243.65-4.64 245.05-4.94 246.44-5.25 247.17-5.85 247.9-6.45 248.11-7.32 248.32-8.2 248.32-9.35L248.32-9.35Q248.32-10.25 248.23-11 248.15-11.74 247.83-12.33 247.51-12.92 246.93-13.34 246.34-13.77 245.31-14.04L245.31-14.04 238.21-15.89Q236.53-16.33 235.35-17.08 234.18-17.82 233.46-18.97 232.74-20.12 232.41-21.74 232.08-23.36 232.08-25.56L232.08-25.56Q232.08-28.15 232.86-30.04 233.64-31.93 235.07-33.15 236.5-34.38 238.53-34.96 240.55-35.55 243.04-35.55L243.04-35.55Q245.12-35.55 246.84-35.31 248.56-35.08 249.81-34.81L249.81-34.81Q251.27-34.5 252.47-34.11L252.47-34.11 252.47-29.59Q251.37-29.74 250.15-29.86L250.15-29.86Q249.1-29.98 247.79-30.07 246.49-30.15 245.09-30.15L245.09-30.15Q242.92-30.15 241.53-30 240.14-29.86 239.33-29.39 238.53-28.93 238.21-28.08 237.89-27.22 237.89-25.81L237.89-25.81Q237.89-25.02 237.98-24.41 238.06-23.8 238.37-23.34 238.67-22.88 239.25-22.53 239.82-22.19 240.8-21.9L240.8-21.9 247.41-20Q248.68-19.63 249.67-19.23 250.66-18.82 251.39-18.27 252.13-17.72 252.65-16.99 253.18-16.26 253.49-15.25 253.81-14.23 253.96-12.87 254.1-11.5 254.1-9.72L254.1-9.72Q254.1-6.93 253.63-4.94 253.15-2.95 251.83-1.7 250.51-0.44 248.21 0.16 245.9 0.76 242.24 0.76L242.24 0.76Q239.41 0.76 237.54 0.5 235.67 0.24 234.5-0.07L234.5-0.07Q233.16-0.44 232.37-0.9L232.37-0.9ZM258.84-13.16L258.84-13.16Q258.84-17.19 259.89-19.78 260.94-22.36 262.67-23.85 264.4-25.34 266.63-25.92 268.85-26.49 271.19-26.49L271.19-26.49Q274.14-26.49 276.09-25.68 278.03-24.88 279.17-23.43 280.32-21.97 280.79-19.95 281.25-17.92 281.25-15.48L281.25-15.48Q281.25-14.33 281.16-13.11 281.08-11.89 280.93-10.6L280.93-10.6 264.79-10.6Q264.82-8.86 265.17-7.68 265.53-6.49 266.34-5.75 267.16-5 268.52-4.68 269.87-4.35 271.9-4.35L271.9-4.35Q273.61-4.35 275.1-4.43 276.59-4.52 277.71-4.64L277.71-4.64Q279.03-4.76 280.1-4.96L280.1-4.96 280.1-0.9Q278.86-0.44 277.39-0.07L277.39-0.07Q276.15 0.24 274.49 0.5 272.83 0.76 270.95 0.76L270.95 0.76Q268.07 0.76 265.82 0.04 263.57-0.68 262.02-2.33 260.47-3.98 259.66-6.64 258.84-9.3 258.84-13.16ZM264.75-14.94L275.9-14.94 275.9-15.87Q275.9-17.33 275.72-18.42 275.54-19.51 274.98-20.21 274.41-20.92 273.39-21.26 272.36-21.61 270.65-21.61L270.65-21.61Q268.82-21.61 267.66-21.18 266.5-20.75 265.86-19.91 265.21-19.07 264.98-17.82 264.75-16.58 264.75-14.94L264.75-14.94ZM286.13-7.3L286.13-7.3Q286.13-9.5 286.78-11.01 287.42-12.52 288.53-13.45 289.65-14.38 291.15-14.79 292.65-15.21 294.38-15.21L294.38-15.21Q296.14-15.21 297.57-15.01 299-14.82 300.05-14.58L300.05-14.58Q301.24-14.31 302.22-13.96L302.22-13.96 302.22-16.36Q302.22-17.26 302.16-17.88 302.1-18.51 301.95-18.97 301.8-19.43 301.55-19.75 301.29-20.07 300.92-20.36L300.92-20.36Q300.14-20.92 298.78-21.17 297.41-21.41 295.21-21.41L295.21-21.41Q293.82-21.41 292.51-21.33 291.21-21.24 290.18-21.12L290.18-21.12Q288.99-21 287.91-20.85L287.91-20.85 287.91-24.9Q288.89-25.29 290.33-25.61L290.33-25.61Q291.55-25.88 293.38-26.11 295.21-26.34 297.73-26.34L297.73-26.34Q299.41-26.34 300.72-26.21 302.02-26.07 303.02-25.76 304.03-25.44 304.79-24.93 305.56-24.41 306.17-23.66L306.17-23.66Q306.69-23.02 307.03-22.31 307.37-21.61 307.59-20.65 307.81-19.7 307.89-18.47 307.98-17.24 307.98-15.6L307.98-15.6 307.98 0 303.07 0 302.63-1.9Q301.56-1.15 300.27-0.56L300.27-0.56Q299.14-0.07 297.64 0.34 296.14 0.76 294.33 0.76L294.33 0.76Q292.14 0.76 290.57 0.32 289.01-0.12 288.02-1.07 287.03-2.03 286.58-3.56 286.13-5.1 286.13-7.3ZM292.06-7.3L292.06-7.3Q292.06-6.23 292.33-5.59 292.6-4.96 293.11-4.63 293.62-4.3 294.37-4.2 295.11-4.1 296.07-4.1L296.07-4.1Q297.31-4.1 298.42-4.33 299.53-4.57 300.39-4.83L300.39-4.83Q301.36-5.15 302.22-5.57L302.22-5.57 302.22-10.03Q301.44-10.18 300.53-10.3L300.53-10.3Q299.75-10.42 298.76-10.51 297.78-10.6 296.68-10.6L296.68-10.6Q295.46-10.6 294.59-10.49 293.72-10.38 293.16-10.02 292.6-9.67 292.33-9.02 292.06-8.37 292.06-7.3ZM316.21 0L316.21-25.76 321.21-25.76 321.55-22.95Q323.46-24.19 325.82-25 328.19-25.81 331.15-25.95L331.15-25.95 331.1-19.95Q328.05-19.9 325.81-19.64 323.58-19.38 321.99-18.75L321.99-18.75 321.99 0 316.21 0ZM334.37-12.89L334.37-12.89Q334.37-16.55 335.26-19.12 336.15-21.68 337.68-23.28 339.2-24.88 341.25-25.61 343.3-26.34 345.62-26.34L345.62-26.34Q347.4-26.34 348.82-26.11 350.24-25.88 351.24-25.61L351.24-25.61Q352.41-25.29 353.26-24.9L353.26-24.9 353.26-20.9Q352.43-20.97 351.46-21.07L351.46-21.07Q350.63-21.12 349.58-21.18 348.53-21.24 347.38-21.24L347.38-21.24Q345.55-21.24 344.23-20.92 342.91-20.61 342.08-19.71 341.25-18.82 340.86-17.2 340.47-15.58 340.47-12.94L340.47-12.94Q340.47-10.25 340.92-8.59 341.37-6.93 342.3-6.02 343.23-5.1 344.62-4.8 346.01-4.49 347.92-4.49L347.92-4.49Q349.11-4.49 350.13-4.55 351.14-4.61 351.9-4.71L351.9-4.71Q352.78-4.81 353.48-4.96L353.48-4.96 353.48-0.9Q352.7-0.46 351.58-0.12L351.58-0.12Q350.63 0.17 349.19 0.42 347.75 0.66 345.82 0.66L345.82 0.66Q343.45 0.66 341.36 0.01 339.27-0.63 337.72-2.2 336.17-3.76 335.27-6.36 334.37-8.96 334.37-12.89ZM359.68 0L359.68-37.94 365.47-37.94 365.47-24.51Q366.76-25 368.25-25.42L368.25-25.42Q369.52-25.76 371.17-26.05 372.82-26.34 374.57-26.34L374.57-26.34Q376.33-26.34 377.76-25.96 379.19-25.59 380.18-24.62 381.17-23.66 381.7-22.01 382.24-20.36 382.24-17.8L382.24-17.8 382.24 0 376.43 0 376.43-17.09Q376.43-18.12 376.28-18.88 376.14-19.65 375.66-20.15 375.18-20.65 374.29-20.9 373.4-21.14 371.94-21.14L371.94-21.14Q370.77-21.14 369.63-21 368.5-20.85 367.57-20.68L367.57-20.68Q366.47-20.48 365.47-20.24L365.47-20.24 365.47 0 359.68 0ZM388.54-13.16L388.54-13.16Q388.54-17.19 389.59-19.78 390.64-22.36 392.37-23.85 394.1-25.34 396.32-25.92 398.55-26.49 400.89-26.49L400.89-26.49Q403.84-26.49 405.79-25.68 407.73-24.88 408.87-23.43 410.02-21.97 410.48-19.95 410.95-17.92 410.95-15.48L410.95-15.48Q410.95-14.33 410.86-13.11 410.78-11.89 410.63-10.6L410.63-10.6 394.49-10.6Q394.52-8.86 394.87-7.68 395.23-6.49 396.04-5.75 396.86-5 398.22-4.68 399.57-4.35 401.6-4.35L401.6-4.35Q403.31-4.35 404.8-4.43 406.29-4.52 407.41-4.64L407.41-4.64Q408.73-4.76 409.8-4.96L409.8-4.96 409.8-0.9Q408.56-0.44 407.09-0.07L407.09-0.07Q405.85 0.24 404.19 0.5 402.53 0.76 400.65 0.76L400.65 0.76Q397.77 0.76 395.52 0.04 393.27-0.68 391.72-2.33 390.17-3.98 389.35-6.64 388.54-9.3 388.54-13.16ZM394.44-14.94L405.6-14.94 405.6-15.87Q405.6-17.33 405.42-18.42 405.24-19.51 404.67-20.21 404.11-20.92 403.09-21.26 402.06-21.61 400.35-21.61L400.35-21.61Q398.52-21.61 397.36-21.18 396.2-20.75 395.56-19.91 394.91-19.07 394.68-17.82 394.44-16.58 394.44-14.94L394.44-14.94ZM416.78 0L416.78-25.76 421.79-25.76 422.13-22.95Q424.03-24.19 426.4-25 428.77-25.81 431.72-25.95L431.72-25.95 431.67-19.95Q428.62-19.9 426.39-19.64 424.15-19.38 422.57-18.75L422.57-18.75 422.57 0 416.78 0Z" opacity="1" transform="matrix(1,0,0,1,0,0)" fill="#000000" class="wordmark-text-0" data-fill-palette-color="primary" id="text-0"></path></svg></g></svg></g></svg></g></svg></g><g transform="matrix(1,0,0,1,403.93985865273936,0)"><svg viewBox="0 0 38.52629159747276 49.29024830175798" height="49.29024830175798" width="38.52629159747276"><g><svg xmlns="http://www.w3.org/2000/svg" xmlns:xlink="http://www.w3.org/1999/xlink" version="1.1" x="0" y="0" viewBox="20.68720360129128 11.219609757985097 60.096796398708726 76.8873902420149" enable-background="new 0 0 100 100" xml:space="preserve" height="49.29024830175798" width="38.52629159747276" class="icon-icon-0" data-fill-palette-color="accent" id="icon-0"><g fill="#000000" data-fill-palette-color="accent"><circle cx="44.34003" cy="33.31693" r="4.5" fill="#000000" data-fill-palette-color="accent"></circle><path d="M75.547 38.75C73.583 29.09 70.568 19.7 61.384 14.735 52.553 9.96 40.864 9.835 32.489 15.685 18.388 25.536 17.823 48.18 26.045 61.915 26.61 62.855 27.511 64.068 27.502 65.217L27.512 88.107H58.729V73.07C68.229 74.382 73.326 71.04 73.326 71.04L73.934 57.699 80.784 56.695C80.343 56.76 75.874 40.36 75.547 38.75M47.441 42.883L46.641 46.883H41.841L41.04 42.884 37.526 40.853 33.66 42.162 31.26 38.004 34.324 35.31V31.252L31.26 28.558 33.66 24.401 37.527 25.708 41.04 23.68 41.84 19.75H46.641L47.441 23.679 50.956 25.709 54.821 24.4 57.22 28.558 54.157 31.252 54.355 35.149 57.42 37.842 55.02 42 51.155 40.692zM67.48 57.64L64.914 56.774 62.449 58.228 61.92 60.883H58.731L58.2 58.228 55.868 56.88 53.303 57.749 51.709 54.989 53.743 53.201V50.508L51.71 48.72 53.303 45.96 55.868 46.829 58.2 45.482 58.732 42.874H61.918L62.45 45.482 64.782 46.828 67.347 45.961 68.94 48.72 66.906 50.507 67.038 53.094 69.072 54.882z" fill="#000000" data-fill-palette-color="accent"></path><circle cx="60.39069" cy="51.87836" r="2.5" fill="#000000" data-fill-palette-color="accent"></circle></g></svg></g></svg></g></svg></g><defs></defs></svg><rect width="395.52" height="44.06049818113056" fill="none" stroke="none" visibility="hidden"></rect></g></svg></g></svg>