<?xml version="1.0" standalone="no"?>
<!DOCTYPE svg PUBLIC "-//W3C//DTD SVG 20010904//EN"
 "http://www.w3.org/TR/2001/REC-SVG-20010904/DTD/svg10.dtd">
<svg version="1.0" xmlns="http://www.w3.org/2000/svg"
 width="2000.000000pt" height="217.000000pt" viewBox="0 0 2000.000000 217.000000"
 preserveAspectRatio="xMidYMid meet">

<g transform="translate(0.000000,217.000000) scale(0.100000,-0.100000)"
fill="#000000" stroke="none">
<path d="M18875 2154 c-331 -74 -542 -336 -586 -728 -25 -227 33 -499 148
-688 l38 -63 3 -337 3 -338 439 0 440 0 0 209 0 209 138 5 c108 3 150 9 200
27 35 12 65 27 68 34 2 6 8 91 12 188 5 98 11 180 14 183 3 3 44 11 92 17 47
6 86 15 86 20 0 4 -25 94 -55 199 -31 105 -73 264 -94 353 -58 238 -103 346
-193 461 -83 107 -217 192 -369 235 -101 29 -288 36 -384 14z m153 -281 c11
-55 15 -59 61 -85 l50 -27 54 18 54 19 31 -55 c18 -30 32 -58 32 -62 0 -4 -18
-22 -40 -40 -38 -30 -40 -35 -40 -88 0 -53 2 -57 45 -95 l45 -40 -27 -46 c-42
-75 -38 -73 -97 -52 l-53 18 -51 -30 c-36 -21 -54 -38 -58 -56 -21 -95 -13
-87 -87 -90 l-66 -3 -12 60 c-11 57 -13 60 -62 86 l-50 28 -54 -17 c-30 -10
-56 -16 -57 -14 -2 2 -17 28 -34 58 l-30 55 44 38 c42 37 44 41 44 95 0 53 -2
58 -44 96 l-44 41 34 57 34 57 54 -19 54 -18 50 29 c47 27 51 32 62 84 l11 55
68 0 67 0 12 -57z m427 -632 c9 -52 56 -80 109 -64 34 11 36 10 56 -22 26 -42
25 -51 -5 -71 -37 -24 -35 -81 4 -119 l30 -28 -22 -38 c-15 -26 -27 -37 -37
-33 -65 24 -125 -2 -136 -61 -6 -34 -8 -35 -50 -35 -45 0 -47 2 -58 50 -8 36
-63 64 -100 51 -40 -16 -42 -15 -66 26 l-21 37 30 28 c42 39 42 84 1 123 l-29
28 21 39 c14 24 27 37 36 33 61 -23 117 -4 128 43 11 51 12 52 58 52 44 0 44
-1 51 -39z"/>
<path d="M18879 1647 c-23 -15 -38 -37 -47 -64 -12 -37 -11 -46 6 -86 32 -72
113 -98 180 -57 70 43 78 136 17 197 -27 27 -40 33 -78 33 -29 0 -55 -8 -78
-23z"/>
<path d="M19351 1064 c-24 -30 -24 -34 -11 -68 27 -72 130 -50 130 28 0 65
-79 91 -119 40z"/>
<path d="M12868 1698 c-101 -95 -184 -176 -186 -180 -6 -13 82 -119 94 -114
30 12 334 217 367 248 55 52 49 84 -27 166 -58 63 -47 68 -248 -120z"/>
<path d="M5960 1519 c0 -235 -1 -251 -17 -244 -61 25 -148 47 -222 54 -140 15
-229 -8 -294 -73 -85 -84 -119 -206 -119 -426 0 -290 52 -434 179 -496 108
-53 278 -40 420 31 37 19 71 31 75 29 4 -3 8 -18 8 -35 l0 -29 95 0 95 0 0
720 0 720 -110 0 -110 0 0 -251z m-62 -400 l62 -11 0 -284 0 -283 -52 -16
c-29 -9 -96 -19 -149 -22 -118 -7 -159 8 -192 71 -19 36 -22 60 -25 207 -4
169 9 269 41 307 36 44 69 54 162 48 50 -3 118 -10 153 -17z"/>
<path d="M15630 1718 c-52 -19 -73 -95 -50 -179 13 -47 45 -63 125 -62 80 1
111 19 121 68 10 58 -1 134 -23 157 -25 25 -122 34 -173 16z"/>
<path d="M9050 1673 c-48 -8 -125 -36 -160 -58 -53 -34 -86 -74 -117 -140 -26
-56 -28 -69 -28 -185 0 -142 15 -201 66 -263 44 -53 101 -79 283 -126 184 -48
222 -64 240 -100 20 -39 29 -105 21 -161 -8 -61 -43 -100 -105 -119 -47 -14
-332 -16 -437 -2 l-63 7 0 -82 0 -82 38 -15 c80 -32 158 -42 332 -42 153 0
184 3 245 22 83 26 144 74 174 136 43 90 51 317 15 439 -19 63 -75 125 -139
153 -27 12 -126 44 -220 71 -127 36 -177 55 -200 75 -29 26 -30 31 -30 107 0
93 18 129 76 149 38 13 331 16 417 4 l52 -7 0 87 0 87 -67 16 c-132 31 -303
44 -393 29z"/>
<path d="M40 990 l0 -660 318 0 c404 0 460 10 540 92 55 58 76 133 76 278 1
115 -1 130 -25 181 -31 65 -78 107 -146 130 l-48 16 33 7 c49 11 95 64 116
131 15 45 18 79 14 160 -4 92 -8 111 -37 170 -26 52 -43 73 -80 96 -86 55
-116 59 -453 59 l-308 0 0 -660z m597 434 c43 -32 63 -80 63 -154 0 -74 -20
-122 -62 -153 -24 -18 -44 -20 -200 -21 l-173 -1 -3 178 -2 179 174 -4 c158
-3 177 -5 203 -24z m39 -539 c47 -20 67 -68 67 -166 1 -84 -16 -126 -66 -163
-26 -19 -44 -21 -223 -24 l-194 -4 0 186 0 186 190 0 c145 0 199 -4 226 -15z"/>
<path d="M14935 1536 l-90 -21 -3 -103 -3 -102 -69 0 -70 0 0 -90 0 -90 70 0
70 0 0 -315 c0 -188 4 -334 11 -365 27 -128 166 -177 383 -136 114 22 116 24
116 105 l0 69 -120 -2 c-178 -2 -165 -28 -165 342 l0 297 123 3 122 3 0 89 0
90 -125 0 -125 0 0 125 c0 145 13 134 -125 101z"/>
<path d="M2652 1329 c-137 -16 -250 -90 -283 -185 -17 -49 -17 -197 0 -247 18
-54 63 -101 119 -125 26 -11 111 -32 187 -47 213 -39 215 -40 215 -122 0 -69
-11 -88 -57 -104 -49 -16 -313 -13 -410 4 l-73 13 0 -77 0 -78 58 -16 c149
-44 349 -57 473 -31 180 39 237 120 227 325 -5 107 -25 160 -77 204 -40 33
-68 42 -252 77 -94 18 -164 37 -178 48 -51 38 -53 127 -4 160 23 14 51 17 173
17 80 0 178 -4 218 -8 l72 -8 0 75 c0 89 1 88 -116 110 -108 20 -205 25 -292
15z"/>
<path d="M6801 1329 c-140 -16 -251 -87 -310 -199 -43 -80 -61 -171 -61 -310
0 -190 34 -302 117 -391 80 -85 195 -129 343 -129 183 0 321 68 394 193 62
105 86 347 51 510 -51 242 -243 359 -534 326z m217 -209 c32 -18 49 -38 70
-79 24 -51 27 -68 30 -191 8 -273 -47 -360 -228 -360 -181 0 -237 88 -228 360
6 185 37 250 135 286 57 21 169 13 221 -16z"/>
<path d="M10170 1334 c-179 -18 -292 -89 -358 -225 -43 -87 -56 -175 -49 -333
6 -154 27 -234 85 -316 69 -101 166 -147 328 -157 99 -6 262 15 344 46 l45 17
0 74 c0 53 -4 74 -12 73 -7 -2 -74 -7 -150 -13 -304 -24 -393 16 -417 188 l-6
42 309 0 309 0 7 87 c19 224 -29 388 -133 454 -74 47 -199 73 -302 63z m168
-211 c41 -31 59 -71 66 -150 l7 -73 -217 0 -216 0 7 57 c19 151 76 195 243
189 64 -2 88 -7 110 -23z"/>
<path d="M11303 1330 c-66 -10 -187 -46 -235 -71 -20 -10 -40 -19 -43 -19 -3
0 -13 16 -21 35 l-14 35 -80 0 -80 0 0 -490 0 -490 110 0 110 0 0 385 0 384
38 11 c174 46 276 39 310 -24 15 -27 17 -74 20 -393 l4 -363 110 0 110 0 -4
385 -3 385 55 16 c77 22 189 29 234 14 71 -23 71 -20 74 -432 l3 -368 110 0
110 0 -3 403 c-3 388 -4 404 -26 458 -42 104 -107 142 -243 141 -98 0 -181
-20 -285 -67 l-72 -33 -22 30 c-41 56 -155 85 -267 68z"/>
<path d="M14099 1331 c-67 -10 -190 -46 -241 -72 -49 -25 -54 -24 -64 14 l-10
32 -82 3 -82 3 0 -491 0 -490 110 0 110 0 0 384 0 384 30 10 c53 19 191 35
251 29 74 -6 105 -26 118 -74 7 -23 11 -175 11 -385 l0 -348 110 0 110 0 0
358 c0 448 -9 511 -87 584 -52 50 -169 74 -284 59z"/>
<path d="M17346 1329 c-155 -17 -258 -85 -322 -210 -79 -157 -73 -481 12 -626
74 -126 212 -193 398 -193 189 1 331 78 401 217 79 160 74 468 -12 624 -77
143 -256 213 -477 188z m167 -190 c52 -14 102 -61 124 -117 23 -61 26 -333 4
-397 -34 -99 -90 -135 -211 -135 -183 0 -236 86 -228 365 3 117 6 136 30 185
27 55 60 83 116 100 39 12 121 12 165 -1z"/>
<path d="M3605 1316 c-27 -7 -67 -20 -87 -30 -175 -84 -262 -338 -213 -619 40
-228 153 -337 375 -362 71 -8 216 10 286 36 l54 20 0 78 0 77 -52 -7 c-80 -11
-221 -10 -278 2 -97 21 -144 87 -161 224 -13 107 1 240 33 304 18 36 34 51 73
71 47 23 59 24 193 23 79 -1 152 -5 163 -8 18 -6 19 -1 19 74 l0 80 -54 16
c-123 36 -258 44 -351 21z"/>
<path d="M4515 1323 c-62 -7 -151 -23 -187 -33 l-38 -11 0 -81 c0 -79 0 -80
23 -74 12 4 101 9 197 12 151 4 182 2 224 -13 75 -27 90 -55 94 -169 2 -52 2
-94 0 -94 -1 0 -24 7 -50 14 -26 8 -92 20 -147 26 -189 22 -314 -21 -375 -130
-30 -53 -31 -60 -31 -170 0 -105 2 -120 27 -170 32 -64 75 -97 151 -117 115
-29 255 -10 379 52 l66 33 7 -34 6 -34 94 0 95 0 0 343 c0 438 -9 496 -92 573
-44 42 -81 60 -153 73 -55 10 -222 13 -290 4z m293 -609 c21 -6 22 -12 22 -90
0 -95 3 -92 -100 -119 -75 -20 -206 -23 -238 -6 -31 17 -45 48 -45 106 0 108
35 128 213 121 69 -3 135 -8 148 -12z"/>
<path d="M12785 1323 c-62 -7 -151 -23 -187 -33 l-38 -11 0 -81 c0 -79 0 -80
23 -74 12 4 101 9 197 12 151 4 182 2 224 -13 74 -27 89 -54 94 -168 3 -52 3
-95 1 -95 -2 0 -25 7 -51 14 -26 8 -92 20 -147 26 -189 22 -314 -21 -375 -130
-30 -53 -31 -59 -30 -175 0 -130 10 -166 58 -218 89 -96 323 -102 498 -13 l66
34 6 -34 7 -34 95 0 96 0 -4 383 c-4 366 -5 384 -26 437 -23 58 -75 117 -127
143 -62 31 -250 46 -380 30z m293 -609 c22 -6 23 -10 20 -92 l-3 -86 -53 -18
c-122 -42 -269 -42 -303 1 -46 56 -29 163 31 194 30 16 52 18 160 13 69 -3
135 -8 148 -12z"/>
<path d="M16390 1319 c-103 -20 -210 -101 -258 -195 -45 -89 -57 -152 -57
-309 0 -158 12 -220 57 -310 46 -89 122 -152 220 -181 113 -33 320 -19 424 28
24 11 25 15 22 87 l-3 76 -40 -5 c-22 -3 -98 -5 -170 -5 -123 0 -133 2 -175
27 -56 32 -85 82 -101 173 -13 78 -7 240 12 295 41 119 113 144 379 131 l85
-4 3 74 3 75 -53 16 c-118 37 -247 47 -348 27z"/>
<path d="M1242 908 c4 -454 6 -466 79 -539 93 -93 316 -90 524 5 l55 25 15
-35 14 -34 80 0 81 0 0 490 0 490 -110 0 -110 0 -2 -387 -3 -387 -45 -14 c-28
-9 -93 -15 -172 -16 -127 -1 -128 -1 -155 27 l-28 27 -3 375 -3 375 -110 0
-110 0 3 -402z"/>
<path d="M7600 820 l0 -490 110 0 110 0 0 355 0 355 28 11 c28 11 128 25 245
35 l67 6 0 109 0 109 -38 0 c-60 0 -188 -36 -257 -73 -62 -33 -64 -33 -69 -13
-3 12 -6 36 -6 54 l0 32 -95 0 -95 0 0 -490z"/>
<path d="M15590 820 l0 -490 110 0 110 0 0 490 0 490 -110 0 -110 0 0 -490z"/>
</g>
</svg>
